<svg xmlns="http://www.w3.org/2000/svg" width="64" height="64" viewBox="0 0 64 64"><defs><style>.a{fill:none;}</style></defs><rect class="a" width="64" height="64"/><path d="M46.011-.326a22.645,22.645,0,0,1-1.364,6.559,9.416,9.416,0,0,1-2.873,4.121,9.051,9.051,0,0,1-3.221,1.509,15.48,15.48,0,0,1-4.034.522,22.049,22.049,0,0,1-6.907-1.1A90.516,90.516,0,0,1,19.08,7.858L15.249,6.233a5.888,5.888,0,0,0-1.393-.406A13.3,13.3,0,0,1,11.39,6.871a8.155,8.155,0,0,1-2.409.406,3.924,3.924,0,0,1-1.973-.435,1.415,1.415,0,0,1-.755-1.306A1.461,1.461,0,0,1,7.066,4.2a4.886,4.886,0,0,1,2.38-.464,11.046,11.046,0,0,1,4.411,1.045,26.676,26.676,0,0,0,4.353-1.567q.522-.174,1.19-.464t1.538-.58A23.417,23.417,0,0,1,10.925-1.022,17.637,17.637,0,0,1,4.338-8.161,22.849,22.849,0,0,1,2.016-18.725,22.617,22.617,0,0,1,4.8-30.043,19.5,19.5,0,0,1,12.579-37.7a23.332,23.332,0,0,1,11.376-2.728,25.139,25.139,0,0,1,11.492,2.5,18.06,18.06,0,0,1,7.661,7.226,22.223,22.223,0,0,1,2.728,11.289,22.821,22.821,0,0,1-2.67,11.144A19.324,19.324,0,0,1,35.68-.645,23.148,23.148,0,0,1,24.652,2.286a14.3,14.3,0,0,0-2.583.58q-1.248.406-2.351.871a35.969,35.969,0,0,1-3.831,1.335l2.264.058q4.991.174,8.474.174a49.014,49.014,0,0,0,9.867-.813,17.234,17.234,0,0,0,5.108-1.8A10.363,10.363,0,0,0,44.908-.616ZM14.2-18.957A38.115,38.115,0,0,0,15.539-8.336a17.856,17.856,0,0,0,3.6,7.081,6.664,6.664,0,0,0,4.991,2.5A6.436,6.436,0,0,0,29.15-1.342a17.817,17.817,0,0,0,3.337-7.226,43.968,43.968,0,0,0,1.161-10.621,38.115,38.115,0,0,0-1.335-10.621,17.856,17.856,0,0,0-3.6-7.081,6.664,6.664,0,0,0-4.991-2.5A6.436,6.436,0,0,0,18.7-36.8a17.817,17.817,0,0,0-3.337,7.226A43.968,43.968,0,0,0,14.2-18.957Z" transform="translate(8.107 46.024)"/><path d="M4.214-40.375a5.5,5.5,0,0,1,1.115-3.668,5.415,5.415,0,0,1,3.192-1.73v1.6a3.022,3.022,0,0,0-2.107,1.723,2.551,2.551,0,0,0-.231,1.277h2.4v4.045H4.214Zm8.752,1.923a3.276,3.276,0,0,0,2.076-1.615,2.815,2.815,0,0,0,.261-1.369H12.889v-4.045h4.384v3.245a5.494,5.494,0,0,1-1.13,3.661,5.338,5.338,0,0,1-3.176,1.738Z" transform="translate(21.393 69.387)"/></svg>