<svg xmlns="http://www.w3.org/2000/svg" width="16" height="16" viewBox="0 0 16 16"><defs><style>.a{fill:none;}</style></defs><rect class="a" width="16" height="16"/><path d="M13.015-30.405a5.661,5.661,0,0,1-.341,1.64,2.354,2.354,0,0,1-.718,1.03,2.263,2.263,0,0,1-.805.377,3.87,3.87,0,0,1-1.008.131A5.512,5.512,0,0,1,8.415-27.5a22.629,22.629,0,0,1-2.133-.856l-.958-.406a1.472,1.472,0,0,0-.348-.1,3.326,3.326,0,0,1-.617.261,2.039,2.039,0,0,1-.6.1.981.981,0,0,1-.493-.109.354.354,0,0,1-.189-.326.365.365,0,0,1,.2-.334,1.222,1.222,0,0,1,.595-.116,2.762,2.762,0,0,1,1.1.261,6.669,6.669,0,0,0,1.088-.392q.131-.044.3-.116t.385-.145a5.854,5.854,0,0,1-2.5-.8A4.409,4.409,0,0,1,2.6-32.364a5.712,5.712,0,0,1-.58-2.641,5.654,5.654,0,0,1,.7-2.829A4.874,4.874,0,0,1,4.657-39.75,5.833,5.833,0,0,1,7.5-40.432a6.285,6.285,0,0,1,2.873.624A4.515,4.515,0,0,1,12.289-38a5.556,5.556,0,0,1,.682,2.822,5.705,5.705,0,0,1-.667,2.786,4.831,4.831,0,0,1-1.872,1.908,5.787,5.787,0,0,1-2.757.733,3.574,3.574,0,0,0-.646.145q-.312.1-.588.218a8.992,8.992,0,0,1-.958.334l.566.015Q7.3-29,8.168-29a12.253,12.253,0,0,0,2.467-.2,4.308,4.308,0,0,0,1.277-.45,2.591,2.591,0,0,0,.827-.827ZM5.063-35.063A9.529,9.529,0,0,0,5.4-32.408a4.464,4.464,0,0,0,.9,1.77,1.666,1.666,0,0,0,1.248.624A1.609,1.609,0,0,0,8.8-30.659a4.454,4.454,0,0,0,.834-1.807,10.992,10.992,0,0,0,.29-2.655,9.529,9.529,0,0,0-.334-2.655,4.464,4.464,0,0,0-.9-1.77,1.666,1.666,0,0,0-1.248-.624,1.609,1.609,0,0,0-1.255.646,4.454,4.454,0,0,0-.834,1.807A10.992,10.992,0,0,0,5.063-35.063Z" transform="translate(0.515 41.83)"/><path d="M4.214-44.424a1.376,1.376,0,0,1,.279-.917,1.354,1.354,0,0,1,.8-.433v.4a.755.755,0,0,0-.527.431.638.638,0,0,0-.058.319h.6v1.011H4.214Zm2.188.481a.819.819,0,0,0,.519-.4.7.7,0,0,0,.065-.342h-.6V-45.7h1.1v.811a1.374,1.374,0,0,1-.283.915,1.335,1.335,0,0,1-.794.435Z" transform="translate(2.187 51.677)"/></svg>