<svg xmlns="http://www.w3.org/2000/svg" width="128" height="128" viewBox="0 0 128 128"><defs><style>.a{fill:none;}</style></defs><rect class="a" width="128" height="128"/><path d="M90.006,39.78A45.29,45.29,0,0,1,87.278,52.9a18.832,18.832,0,0,1-5.746,8.242,18.1,18.1,0,0,1-6.443,3.018A30.959,30.959,0,0,1,67.021,65.2,44.1,44.1,0,0,1,53.208,63a181.032,181.032,0,0,1-17.064-6.849L28.483,52.9a11.776,11.776,0,0,0-2.786-.813,26.608,26.608,0,0,1-4.933,2.089,16.309,16.309,0,0,1-4.817.813A7.849,7.849,0,0,1,12,54.116,2.829,2.829,0,0,1,10.49,51.5a2.923,2.923,0,0,1,1.625-2.67,9.772,9.772,0,0,1,4.759-.929A22.092,22.092,0,0,1,25.7,50,53.352,53.352,0,0,0,34.4,46.861q1.045-.348,2.38-.929t3.076-1.161a46.834,46.834,0,0,1-20.024-6.384A35.273,35.273,0,0,1,6.659,24.109,45.7,45.7,0,0,1,2.016,2.982,45.233,45.233,0,0,1,7.588-19.653,38.992,38.992,0,0,1,23.143-34.976a46.665,46.665,0,0,1,22.752-5.456q13.117,0,22.984,4.991A36.119,36.119,0,0,1,84.2-20.988q5.456,9.461,5.456,22.578a45.641,45.641,0,0,1-5.34,22.288A38.649,38.649,0,0,1,69.343,39.142,46.3,46.3,0,0,1,47.288,45a28.593,28.593,0,0,0-5.166,1.161q-2.5.813-4.7,1.741a71.937,71.937,0,0,1-7.661,2.67l4.527.116q9.983.348,16.948.348a98.028,98.028,0,0,0,19.734-1.625,34.468,34.468,0,0,0,10.215-3.6A20.726,20.726,0,0,0,87.8,39.2ZM26.393,2.518a76.231,76.231,0,0,0,2.67,21.243q2.67,9.17,7.2,14.162t9.983,4.991q5.688,0,10.041-5.166T62.959,23.3A87.936,87.936,0,0,0,65.28,2.054a76.231,76.231,0,0,0-2.67-21.243q-2.67-9.17-7.2-14.162T45.43-38.343q-5.688,0-10.041,5.166T28.715-18.725A87.936,87.936,0,0,0,26.393,2.518Z" transform="translate(18.229 51.615)"/><path d="M4.214-34.976q0-4.707,2.23-7.337a10.83,10.83,0,0,1,6.383-3.461v3.2a6.044,6.044,0,0,0-4.214,3.445,5.1,5.1,0,0,0-.461,2.553h4.8v8.09H4.214Zm17.5,3.845a6.553,6.553,0,0,0,4.153-3.23,5.629,5.629,0,0,0,.523-2.738h-4.83v-8.09h8.767V-38.7a10.989,10.989,0,0,1-2.261,7.321A10.677,10.677,0,0,1,21.718-27.9Z" transform="translate(47 93)"/></svg>